<svg width="1171" height="1024" viewBox="0 0 1171 1024" fill="none" xmlns="http://www.w3.org/2000/svg">
<g filter="url(#filter0_f_249_2951)">
<path d="M1067 -145C863.779 -71.7196 486.921 130.119 605.255 351.231C753.173 627.621 587.265 675.91 526.798 793.455C478.425 887.491 604.256 1145.67 673.217 1263" stroke="url(#paint0_linear_249_2951)" stroke-opacity="0.2" stroke-width="20"/>
</g>
<g filter="url(#filter1_f_249_2951)">
<path d="M977.736 -66.037C915.077 -4.9048 839.507 40.8452 794.074 328.336C760.963 537.851 469.564 570.408 317.411 722.561C199.839 840.133 221.788 1080.84 272.161 1225.93" stroke="url(#paint1_linear_249_2951)" stroke-opacity="0.2" stroke-width="20"/>
</g>
<path d="M609.656 568.5C712.24 364.145 839.295 135.167 836.969 0H0V1024H722.315C578.75 935.5 502.481 782 609.656 568.5Z" fill="url(#paint2_linear_249_2951)"/>
<g filter="url(#filter2_f_249_2951)">
<path d="M320.5 328.5C542.5 358 808.358 86.6003 837 0H0V508C31.0165 442.946 58.7376 293.716 320.5 328.5Z" fill="url(#paint3_linear_249_2951)" fill-opacity="0.4"/>
</g>
<g filter="url(#filter3_f_249_2951)">
<path d="M320.706 233.339C520.708 216.05 614.236 70.5759 636 0H0V414C23.5681 360.984 120.705 250.629 320.706 233.339Z" fill="url(#paint4_linear_249_2951)"/>
</g>
<defs>
<filter id="filter0_f_249_2951" x="406" y="-254.406" width="764.393" height="1622.47" filterUnits="userSpaceOnUse" color-interpolation-filters="sRGB">
<feFlood flood-opacity="0" result="BackgroundImageFix"/>
<feBlend mode="normal" in="SourceGraphic" in2="BackgroundImageFix" result="shape"/>
<feGaussianBlur stdDeviation="50" result="effect1_foregroundBlur_249_2951"/>
</filter>
<filter id="filter1_f_249_2951" x="161.498" y="-133.195" width="883.223" height="1422.41" filterUnits="userSpaceOnUse" color-interpolation-filters="sRGB">
<feFlood flood-opacity="0" result="BackgroundImageFix"/>
<feBlend mode="normal" in="SourceGraphic" in2="BackgroundImageFix" result="shape"/>
<feGaussianBlur stdDeviation="30" result="effect1_foregroundBlur_249_2951"/>
</filter>
<filter id="filter2_f_249_2951" x="-10" y="-10" width="857" height="528" filterUnits="userSpaceOnUse" color-interpolation-filters="sRGB">
<feFlood flood-opacity="0" result="BackgroundImageFix"/>
<feBlend mode="normal" in="SourceGraphic" in2="BackgroundImageFix" result="shape"/>
<feGaussianBlur stdDeviation="5" result="effect1_foregroundBlur_249_2951"/>
</filter>
<filter id="filter3_f_249_2951" x="-20" y="-20" width="676" height="454" filterUnits="userSpaceOnUse" color-interpolation-filters="sRGB">
<feFlood flood-opacity="0" result="BackgroundImageFix"/>
<feBlend mode="normal" in="SourceGraphic" in2="BackgroundImageFix" result="shape"/>
<feGaussianBlur stdDeviation="10" result="effect1_foregroundBlur_249_2951"/>
</filter>
<linearGradient id="paint0_linear_249_2951" x1="791.5" y1="-145" x2="791.5" y2="1263" gradientUnits="userSpaceOnUse">
<stop stop-color="white"/>
<stop offset="1" stop-color="#8E88FD"/>
</linearGradient>
<linearGradient id="paint1_linear_249_2951" x1="1123.85" y1="80.0803" x2="125.081" y2="1078.85" gradientUnits="userSpaceOnUse">
<stop stop-color="white"/>
<stop offset="1" stop-color="#8E88FD"/>
</linearGradient>
<linearGradient id="paint2_linear_249_2951" x1="418.5" y1="0" x2="418.5" y2="1024" gradientUnits="userSpaceOnUse">
<stop stop-color="#837CFD"/>
<stop offset="1" stop-color="#B9B5FF"/>
</linearGradient>
<linearGradient id="paint3_linear_249_2951" x1="418.5" y1="0" x2="418.5" y2="508" gradientUnits="userSpaceOnUse">
<stop stop-color="#F5F4FF"/>
<stop offset="1" stop-color="#6960FF" stop-opacity="0"/>
</linearGradient>
<linearGradient id="paint4_linear_249_2951" x1="318" y1="0" x2="318" y2="414" gradientUnits="userSpaceOnUse">
<stop stop-color="#DDDBFF"/>
<stop offset="1" stop-color="#867FFF" stop-opacity="0"/>
</linearGradient>
</defs>
</svg>
