<svg width="28" height="15" viewBox="0 0 28 15" fill="none" xmlns="http://www.w3.org/2000/svg">
<path d="M1.05889 5.31344L27.3626 2.55234L27.27 2.23818L26.6072 0L0.300781 2.76138L0.404464 3.11095L0.963675 4.99956L1.05666 5.31371L1.05704 5.31367V13.9555C1.05704 14.5299 1.8464 15 2.81157 15H26.0148C26.9795 15 27.7693 14.5301 27.7693 13.9555V5.31348H1.05889V5.31344ZM26.1772 0.405663L26.6449 1.98506L23.5591 0.680412L26.1772 0.405663ZM22.4198 0.800008L26.1098 2.35993L22.9373 2.69283L19.2473 1.13291L22.4198 0.800008ZM18.024 1.26148L21.714 2.8214L18.5419 3.1543L14.8519 1.59438L18.024 1.26148ZM13.6289 1.72273L17.3189 3.28265L14.1464 3.61555L10.4564 2.05562L13.6289 1.72273ZM9.23314 2.1842L12.9232 3.74412L9.75063 4.07702L6.06061 2.51715L9.23314 2.1842ZM4.83766 2.64572L8.52768 4.20564L5.35515 4.53854L1.66513 2.97862L4.83766 2.64572ZM0.986151 3.35377L4.13189 4.66684L1.4473 4.9486L0.986151 3.35377ZM26.4889 5.66842L23.3101 7.58612H20.0887L23.2675 5.66842H26.4889ZM22.0253 5.66842L18.8465 7.58612H15.6251L18.8039 5.66842H22.0253ZM17.5617 5.66842L14.3829 7.58612H11.1619L14.3407 5.66842H17.5617ZM13.0985 5.66842L9.91966 7.58612H6.69826L9.8771 5.66842H13.0985ZM1.52135 7.31866V5.66842H4.25682L1.52135 7.31866ZM5.41388 5.66842H8.63529L5.45645 7.58608H2.23504L5.41388 5.66842ZM25.9805 14.0721H2.75207V8.77415H25.9805V14.0721ZM27.3043 7.58608H24.5523L27.3043 5.94546V7.58608Z" fill="white"/>
<path d="M25.1641 9.25977H17.375V10.6503H25.1641V9.25977Z" fill="white"/>
<path d="M25.1641 11.1582H17.375V13.5866H25.1641V11.1582Z" fill="white"/>
<path d="M16.5228 9.25977H7.69336V10.6503H16.5228V9.25977Z" fill="white"/>
<path d="M6.84214 9.25977H3.57031V13.5869H6.84214V9.25977Z" fill="white"/>
<path d="M16.5228 11.1582H7.69336V13.5866H16.5228V11.1582Z" fill="white"/>
</svg>
