<svg width="15" height="15" viewBox="0 0 15 15" fill="none" xmlns="http://www.w3.org/2000/svg">
<path d="M7.5 1.5C4.1865 1.5 1.5 4.1865 1.5 7.5C1.5 10.8135 4.1865 13.5 7.5 13.5C10.8135 13.5 13.5 10.8135 13.5 7.5C13.5 4.1865 10.8135 1.5 7.5 1.5ZM10.8535 6.3535L7.0735 10.1335C6.9795 10.2275 6.8525 10.28 6.72 10.28C6.5875 10.28 6.46 10.2275 6.3665 10.1335L4.64 8.407C4.4445 8.2115 4.4445 7.8955 4.64 7.7C4.8355 7.5045 5.1515 7.5045 5.347 7.7L6.72 9.073L10.1465 5.6465C10.342 5.451 10.658 5.451 10.8535 5.6465C11.049 5.842 11.049 6.158 10.8535 6.3535Z" fill="#8B2CF5"/>
</svg>
